<?xml version="1.0" ?><svg height="24" width="24" xmlns="http://www.w3.org/2000/svg"><path d="M5 9c-1.105 0-2 .9-2 2v8c0 1.1.895 2 2 2h14c1.105 0 2-.9 2-2v-8c0-1.1-.895-2-2-2H5z" fill="#f1c40f"/><path d="M5 12c-1.105 0-2 .9-2 2v8c0 1.1.895 2 2 2h14c1.105 0 2-.9 2-2v-8c0-1.1-.895-2-2-2H5z" fill="#f39c12"/><path d="M12 1C8.134 1 5 4.1 5 8h3c0-2.2 1.79-4 4-4s4 1.8 4 4h3c0-3.9-3.134-7-7-7z" fill="#bdc3c7"/><path d="M5 14v1h14v-1H5zm0 2v1h14v-1H5zm0 2v1h14v-1H5zm0 2v1h14v-1H5z" fill="#e67e22"/><path d="M5 9v1c0 .5.672 1 1.5 1S8 10.5 8 10V9c0 .5-.672 1-1.5 1S5 9.5 5 9zm11 0v1c0 .5.672 1 1.5 1s1.5-.5 1.5-1V9c0 .5-.672 1-1.5 1S16 9.5 16 9z" fill="#7f8c8d"/><path d="M12 2.438c-.35 0-.7.033-1.03.093-.248.05-.488.12-.72.19-.217.07-.423.16-.625.25-.106.05-.21.1-.313.16-.13.07-.25.17-.374.25-.116.08-.236.138-.344.22-.14.11-.28.22-.406.34-.037.04-.06.09-.094.13-.17.175-.33.336-.47.53-.14.2-.27.408-.374.627-.004.01.004.024 0 .03-.11.238-.216.498-.28.75-.254.586-.944 1-1.75 1-.06 0-.084.004-.126 0h-.032L5 8v2h3V8c0-.276.04-.552.094-.813C8.467 5.365 10.067 4 12 4c2.21 0 4 1.79 4 4v2h3V8l-.062-1h-.157c-.8 0-1.49-.416-1.75-1-.06-.254-.17-.514-.28-.75 0-.01.01-.023 0-.03-.1-.22-.23-.427-.37-.626-.14-.196-.3-.357-.47-.532-.03-.038-.05-.088-.09-.125-.125-.122-.264-.233-.405-.343-.104-.082-.232-.145-.344-.22-.122-.08-.244-.178-.374-.25-.1-.054-.21-.106-.312-.155-.202-.1-.408-.18-.625-.25-.23-.08-.47-.15-.72-.19-.33-.06-.68-.1-1.03-.1z" fill="#95a5a6"/></svg>
