<?xml version="1.0" ?><svg height="100" viewBox="0 0 160 100" width="160" xmlns="http://www.w3.org/2000/svg"><g fill="none" fill-rule="evenodd"><path d="M148 0H8C4 0 0 4 0 8v80c0 8 4 12 12 12h136c8 0 12-4 12-12V12c0-8-4-12-12-12zm0 0" fill="#306FC5"/><path d="M13.52 36.625l-3.1-7.55-3.08 7.55h6.18zm68.266-3.006c-.623.37-1.358.39-2.24.39h-5.5V29.8h5.575c.79 0 1.62.035 2.15.34.59.277.95.865.95 1.676 0 .828-.34 1.494-.93 1.8 0 0 .59-.306 0 0zm39.236 3l-3.133-7.55-3.12 7.55h6.25zm-73.14 8.17h-4.64l-.018-14.835L36.66 44.79h-3.976l-6.582-14.84V44.8h-9.208l-1.74-4.224H5.728L3.97 44.798H-.947l8.108-18.94h6.73l7.7 17.933V25.86h7.39l5.93 12.85 5.444-12.85h7.537V44.8zm18.5 0H51.256V25.85H66.38v3.95H55.786v3.414h10.342v3.882H55.785v3.783H66.38v3.92zm21.324-13.84c0 3.02-2.016 4.58-3.19 5.05.99.375 1.837 1.04 2.24 1.593.64.942.75 1.784.75 3.476v3.72h-4.568L82.92 42.4c0-1.14.11-2.78-.71-3.69-.66-.668-1.67-.81-3.3-.81h-4.86v6.886h-4.53V25.85h10.42c2.315 0 4.02.06 5.483.908 1.43.846 2.29 2.08 2.29 4.194 0 0 0-2.114 0 0zM94.95 44.8h-4.618V25.86h4.62V44.8zm53.595 0h-6.416l-8.59-14.216V44.8h-9.22l-1.76-4.224h-9.408l-1.71 4.224h-5.298c-2.2 0-4.988-.486-6.566-2.095-1.59-1.608-2.42-3.786-2.42-7.23 0-2.81.496-5.378 2.442-7.407 1.463-1.512 3.755-2.21 6.875-2.21h4.382v4.06h-4.293c-1.652 0-2.585.246-3.483 1.122-.772.797-1.302 2.305-1.302 4.29 0 2.03.405 3.493 1.246 4.45.695.748 1.962.976 3.153.976h2.033l6.38-14.896h6.784l7.667 17.916V25.858h6.895l7.956 13.19V25.86h4.64V44.8zM-1 48.518h7.736l1.744-4.206h3.905l1.74 4.207h15.22V45.3l1.36 3.23h7.9l1.358-3.278v3.265H77.79l-.02-6.907h.733c.512.018.662.065.662.91v5.996h19.563v-1.61c1.578.847 4.033 1.61 7.262 1.61h8.23l1.762-4.208h3.905l1.722 4.207h15.86v-3.997l2.4 3.996h12.71V22.1H140v3.12l-1.762-3.12h-12.905v3.12l-1.618-3.12h-17.433c-2.918 0-5.484.407-7.556 1.542V22.1h-12.03v1.542c-1.32-1.17-3.116-1.542-5.114-1.542h-43.95l-2.95 6.823-3.028-6.823H17.81v3.12l-1.52-3.12H4.483L-1 34.662V48.52zm161.04 13.95h-8.252c-.824 0-1.37.03-1.832.34-.478.308-.662.763-.662 1.364 0 .715.404 1.2.99 1.41.478.168.99.216 1.745.216l2.45.066c2.47.06 4.13.487 5.13 1.525.183.14.293.3.42.46v-5.39zm0 12.49c-1.1 1.608-3.243 2.423-6.144 2.423h-8.744v-4.06h8.708c.864 0 1.47-.11 1.832-.47.316-.29.536-.71.536-1.23 0-.55-.22-.99-.553-1.25-.33-.29-.807-.42-1.595-.42-4.25-.143-9.555.13-9.555-5.863 0-2.75 1.745-5.64 6.496-5.64h9.02v-3.77h-8.38c-2.52 0-4.36.606-5.66 1.547v-1.55h-12.4c-1.98 0-4.304.49-5.404 1.547v-1.55h-22.13v1.547c-1.763-1.27-4.735-1.547-6.106-1.547h-14.6v1.54c-1.393-1.35-4.49-1.548-6.38-1.548H62.64L58.9 58.71l-3.5-4.045H30.992V81.1H54.94l3.852-4.11 3.628 4.11 14.76.014v-6.22h1.452c1.958.03 4.268-.047 6.306-.928v7.13h12.175v-6.89h.587c.75 0 .823.032.823.78v6.11h36.985c2.348 0 4.802-.6 6.16-1.69v1.69H153.4c2.442 0 4.826-.342 6.64-1.218v-4.926zm-18.06-7.57c.88.913 1.354 2.065 1.354 4.015 0 4.075-2.546 5.978-7.112 5.978h-8.818v-4.06h8.782c.86 0 1.468-.11 1.85-.47.31-.29.534-.71.534-1.23 0-.55-.24-.99-.552-1.25-.346-.29-.824-.42-1.612-.42-4.234-.143-9.537.13-9.537-5.863 0-2.75 1.72-5.64 6.47-5.64h9.07v4.03h-8.306c-.824 0-1.36.03-1.814.344-.495.307-.68.76-.68 1.363 0 .715.42 1.2.99 1.41.48.168.99.216 1.763.216l2.436.064c2.456.06 4.143.486 5.17 1.525 0 0-1.027-1.04 0 0zm-40.853-1.17c-.606.36-1.355.39-2.236.39h-5.5v-4.254h5.58c.81 0 1.618.017 2.16.342.59.307.94.893.94 1.704 0 .81-.35 1.464-.934 1.82 0 0 .586-.356 0 0zm2.734 2.358c1.01.372 1.84 1.04 2.22 1.59.64.926.73 1.79.75 3.46v3.755h-4.54v-2.37c0-1.14.11-2.82-.73-3.7-.66-.68-1.67-.84-3.32-.84H93.4v6.92h-4.55V58.44H99.3c2.29 0 3.96.1 5.447.894 1.428.86 2.327 2.045 2.327 4.206 0 3.023-2.016 4.566-3.21 5.04 0 0 1.194-.474 0 0zm5.72-10.14h15.11v3.917h-10.6v3.445h10.35v3.865h-10.35v3.77l10.6.017v3.93h-15.11V58.436zm-30.54 8.742h-5.85v-4.824h5.907c1.634 0 2.77.666 2.77 2.323 0 1.638-1.083 2.5-2.823 2.5zm-10.36 8.48l-6.95-7.717 6.95-7.47v15.19zm-17.95-2.225H39.59v-3.77h9.94v-3.865h-9.94v-3.445h11.35l4.952 5.52-5.17 5.56zm35.997-8.756c0 5.263-3.927 6.35-7.885 6.35h-5.65v6.354h-8.8l-5.574-6.27-5.793 6.27H35.08V58.44h18.21l5.57 6.21 5.758-6.21h14.467c3.593 0 7.63.995 7.63 6.242 0 0 0-5.248 0 0zm0 0" fill="#fff"/></g></svg>
