<?xml version="1.0" ?><svg height="100" viewBox="0 0 160 100" width="160" xmlns="http://www.w3.org/2000/svg"><g fill="none" fill-rule="evenodd"><path fill="#F6F6F6" d="M0 9h160v80H0z"/><path d="M148 0H8C4 0 0 4 0 8v12h160v-8c0-8-4-12-12-12zm0 0" fill="#265697"/><path d="M0 80v8c0 8 4 12 12 12h136c8 0 12-4 12-12v-8H0zm0 0" fill="#D97B16"/><path d="M111.615 29.782c-2.243-.86-5.757-1.782-10.145-1.782-11.184 0-19.062 5.755-19.13 14.003-.062 6.097 5.625 9.498 9.92 11.528 4.404 2.08 5.885 3.41 5.864 5.27-.028 2.847-3.518 4.147-6.77 4.147-4.53 0-6.938-.644-10.655-2.23l-1.46-.672-1.59 9.5c2.64 1.184 7.53 2.21 12.61 2.263 11.89 0 19.62-5.69 19.71-14.498.04-4.828-2.98-8.5-9.51-11.53-3.96-1.963-6.38-3.273-6.356-5.26 0-1.764 2.05-3.65 6.48-3.65 3.703-.058 6.384.766 8.473 1.626l1.014.49 1.535-9.2m29.023-1.003h-8.746c-2.71 0-4.737.755-5.927 3.52l-16.81 38.884h11.886s1.945-5.226 2.384-6.374c1.3 0 12.844.017 14.495.017.34 1.484 1.377 6.357 1.377 6.357h10.51l-9.162-42.402zm-13.956 27.35c.935-2.446 4.51-11.863 4.51-11.863-.07.112.927-2.457 1.5-4.05l.764 3.66s2.167 10.126 2.62 12.25h-9.395zM59.25 71.17l7.076-42.433h11.32L70.563 71.17H59.25zm-9.493-42.402l-11.08 28.935-1.182-5.88c-2.063-6.778-8.49-14.122-15.676-17.8l10.13 37.11 11.97-.015 17.82-42.35H49.75" fill="#265697"/><path d="M28.396 28.742H10.144l-.144.883c14.2 3.512 23.595 12 27.495 22.198l-3.97-19.5c-.684-2.685-2.67-3.487-5.13-3.58" fill="#D97B16"/></g></svg>
