<?xml version="1.0" ?><svg height="100" viewBox="0 0 160 100" width="160" xmlns="http://www.w3.org/2000/svg"><g fill="none" fill-rule="evenodd"><path d="M148 0H8C4 0 0 4 0 8v80c0 8 4 12 12 12h136c8 0 12-4 12-12V12c0-8-4-12-12-12zm0 0" fill="#F6F6F6"/><path d="M151.765 33.457h-4.21c-.96 0-1.937.717-2.21 1.63-.01.036-.03.072-.04.11l-.272 1.214-5.77 25.47c-.133.58-.222.95-.25 1.05l.012.016c-.2.89.35 1.626 1.252 1.708l.012.018h4.36c.95 0 1.92-.71 2.2-1.61.01-.044.03-.084.04-.13l6.293-27.725-.01-.004c.214-.947-.414-1.734-1.42-1.734zM130.22 58.483c-.583.357-1.198.663-1.843.923-.867.34-1.69.52-2.45.52-1.166 0-2.063-.16-2.67-.505-.606-.32-.924-.89-.914-1.7 0-.93.222-1.66.68-2.23.464-.55 1.152-.99 2.004-1.32.848-.28 1.89-.51 3.095-.67 1.07-.13 3.186-.37 3.457-.37.27-.003.45-.15.33.555-.06.305-.67 2.747-.95 3.858-.08.334-.54.82-.75.95 0 0 .208-.13 0 0zm8.306-17.167c-1.783-.97-4.57-1.458-8.386-1.458-1.887 0-3.783.147-5.685.435-1.397.208-1.54.242-2.408.426-1.785.37-2.06 2.11-2.06 2.11l-.573 2.293c-.325 1.47.533 1.41.916 1.294.78-.23 1.202-.457 2.792-.807 1.52-.336 3.125-.587 4.406-.577 1.88 0 3.308.2 4.257.585.95.406 1.42 1.09 1.42 2.076.004.232.01.453-.076.646-.08.18-.23.353-.68.413-2.68.153-4.61.39-6.93.72-2.288.314-4.29.85-5.96 1.595-1.785.77-3.12 1.8-4.04 3.104-.895 1.313-1.345 2.9-1.35 4.774 0 1.768.655 3.21 1.918 4.33 1.28 1.106 2.94 1.653 4.952 1.653 1.256-.008 2.24-.096 2.944-.267.7-.172 1.46-.415 2.263-.754.6-.247 1.25-.6 1.933-1.044.686-.444 1.16-.76 1.77-1.15l.02.04-.17.737c0 .008-.01.01-.01.018l.005.017c-.198.884.35 1.62 1.25 1.71l.01.014h.08l.004.003c.6 0 2.654 0 3.614-.002h.67c.044 0 .05-.01.066-.02.92-.11 1.802-.84 2.01-1.718l3.43-14.404c.08-.34.14-.73.176-1.18.042-.458.093-.83.08-1.1.005-2.04-.894-3.55-2.67-4.518zm-20.645-3.282c-.58-1.108-1.46-2-2.58-2.695-1.14-.7-2.5-1.18-4.08-1.46-1.56-.27-3.41-.42-5.52-.43l-9.82.003c-1.012.017-2.004.79-2.24 1.742l-6.603 27.98c-.24.95.417 1.74 1.41 1.736l4.713-.01c1 .01 2.017-.777 2.253-1.73l1.59-6.78c.222-.95 1.238-1.75 2.254-1.734h1.34c5.748 0 10.205-1.15 13.396-3.44 3.184-2.3 4.787-5.32 4.787-9.07-.01-1.64-.298-3.02-.897-4.117zm-10.13 9.15c-1.4.997-3.38 1.496-5.92 1.496h-1.17c-1.01.012-1.66-.784-1.42-1.737l1.41-5.94c.21-.938 1.238-1.737 2.23-1.73l1.546-.007c1.8.008 3.148.3 4.08.885.914.59 1.357 1.51 1.364 2.73.003 1.86-.703 3.29-2.116 4.31" fill="#306FC5"/><path d="M84.836 39.858c-.895 0-2.068.71-2.623 1.565 0 0-5.982 10.046-6.57 11.05-.32.54-.643.197-.697-.004l-1.854-10.98c-.203-.87-1.125-1.61-2.278-1.61l-3.73.003c-.9 0-1.46.706-1.26 1.56 0 0 2.85 15.83 3.407 19.553.28 2.06-.02 2.424-.02 2.424l-3.7 6.317c-.54.858-.243 1.56.65 1.56l4.325-.004c.895 0 2.08-.698 2.613-1.556l16.63-27.55s1.59-2.353.124-2.333c-1 .013-5.01 0-5.01 0zM53.614 58.483c-.583.357-1.197.66-1.842.923-.867.34-1.693.518-2.45.518-1.164 0-2.063-.16-2.67-.503-.607-.32-.926-.89-.916-1.7 0-.93.224-1.66.683-2.23.46-.55 1.14-.99 2-1.32.85-.28 1.89-.51 3.09-.67 1.07-.13 3.19-.37 3.46-.37s.45-.147.33.555c-.058.305-.67 2.75-.95 3.86-.084.333-.54.818-.744.948 0 0 .205-.13 0 0zm8.306-17.168c-1.782-.97-4.57-1.457-8.385-1.457-1.887 0-3.783.146-5.686.434-1.4.207-1.54.242-2.41.426-1.79.38-2.06 2.118-2.06 2.118l-.58 2.296c-.325 1.468.534 1.407.916 1.293.777-.23 1.202-.456 2.792-.808 1.516-.334 3.124-.585 4.403-.576 1.88 0 3.31.2 4.26.59.95.41 1.418 1.098 1.418 2.08.007.235.01.456-.072.647-.08.18-.23.355-.68.413-2.68.157-4.6.394-6.923.723-2.288.314-4.288.85-5.96 1.594-1.785.77-3.117 1.803-4.035 3.108-.9 1.314-1.347 2.9-1.35 4.775 0 1.767.655 3.21 1.917 4.33 1.28 1.105 2.94 1.653 4.95 1.653 1.26-.01 2.24-.097 2.95-.267.695-.172 1.46-.414 2.26-.753.6-.247 1.25-.6 1.932-1.045.682-.445 1.16-.76 1.77-1.15l.02.037-.17.735c-.004.008-.01.01-.01.02l.004.01c-.197.89.35 1.627 1.25 1.71l.01.02h.08l.003.005 3.61-.005h.67c.047 0 .054-.016.068-.025.923-.113 1.8-.842 2.01-1.715l3.43-14.41c.078-.338.14-.73.176-1.178.042-.46.092-.83.08-1.1.006-2.04-.895-3.55-2.67-4.52zm-21.444-3.28c-.585-1.11-1.47-2.002-2.586-2.696-1.145-.7-2.506-1.18-4.082-1.46-1.558-.27-3.41-.42-5.522-.43l-9.82.003c-1.012.017-2.005.79-2.238 1.742L9.624 63.18c-.24.95.416 1.742 1.41 1.737l4.712-.01c1 .01 2.018-.778 2.254-1.73l1.593-6.79c.223-.95 1.24-1.747 2.255-1.733h1.34c5.748 0 10.205-1.15 13.397-3.44 3.183-2.3 4.786-5.317 4.786-9.07-.01-1.638-.29-3.02-.89-4.114zm-10.133 9.15c-1.407.996-3.38 1.495-5.92 1.495h-1.17c-1.01.012-1.663-.784-1.423-1.737l1.408-5.94c.21-.938 1.236-1.737 2.232-1.73l1.543-.007c1.802.008 3.15.3 4.08.885.915.59 1.358 1.51 1.365 2.73.004 1.86-.702 3.29-2.115 4.31" fill="#265697"/></g></svg>
