<?xml version="1.0" ?><svg height="100" viewBox="0 0 160 100" width="160" xmlns="http://www.w3.org/2000/svg"><g fill="none" fill-rule="evenodd"><path d="M148 0H8C4 0 0 4 0 8v80c0 8 4 12 12 12h136c8 0 12-4 12-12V12c0-8-4-12-12-12zm0 0" fill="#265697"/><path d="M149.545 50.5c.007 23.238-18.625 42.08-41.615 42.085C84.94 92.59 66.3 73.76 66.293 50.52v-.02C66.287 27.263 84.92 8.42 107.908 8.414c22.99-.006 41.63 18.827 41.637 42.065v.02s0-.01 0 0zm0 0" fill="#DFAC16"/><path d="M51.813 8.425c-22.854.147-41.36 18.94-41.36 42.075 0 23.225 18.65 42.075 41.628 42.075 10.79 0 20.62-4.155 28.02-10.963l-.002-.002h.01c1.513-1.395 2.926-2.9 4.225-4.505H75.8c-1.138-1.39-2.173-2.84-3.103-4.335H87.4c.895-1.446 1.705-2.95 2.423-4.505h-19.56c-.666-1.445-1.245-2.922-1.74-4.42h23.042c1.39-4.194 2.142-8.68 2.142-13.345 0-3.093-.33-6.108-.96-9.01H67.303c.315-1.494.713-2.97 1.187-4.42h23.05c-.516-1.544-1.115-3.048-1.795-4.505H70.26c.704-1.518 1.5-2.994 2.39-4.42h14.697c-.978-1.575-2.06-3.08-3.23-4.505H75.92c1.267-1.508 2.662-2.927 4.176-4.25C72.7 12.58 62.868 8.425 52.08 8.425h-.267s.09 0 0 0zm0 0" fill="#BF3126"/><path d="M67.05 61.212l.554-3.808c-.303 0-.748.132-1.142.132-1.543 0-1.713-.83-1.614-1.443l1.246-7.77h2.345l.56-4.21h-2.21l.45-2.62h-4.43c-.1.098-2.62 14.73-2.62 16.513 0 2.637 1.464 3.812 3.53 3.793 1.62-.02 2.88-.47 3.323-.59 0 0-.445.12 0 0zm1.404-7.26c0 6.33 4.134 7.835 7.656 7.835 3.25 0 4.682-.734 4.682-.734l.78-4.32s-2.473 1.1-4.706 1.1c-4.76 0-3.926-3.586-3.926-3.586h9.007s.582-2.903.582-4.086c0-2.95-1.46-6.54-6.32-6.54-4.46 0-7.76 4.856-7.76 10.34 0 0 0-5.484 0 0zm7.772-6.327c2.5 0 2.04 2.84 2.04 3.07h-4.92c0-.293.464-3.07 2.88-3.07 0 0-2.416 0 0 0zm28.066 13.585l.793-4.883s-2.175 1.102-3.667 1.102c-3.144 0-4.405-2.43-4.405-5.04 0-5.29 2.705-8.2 5.716-8.2 2.25 0 4.07 1.28 4.07 1.28l.72-4.746s-2.69-1.1-4.99-1.1c-5.12 0-10.1 4.487-10.1 12.913 0 5.587 2.69 9.277 7.977 9.277 1.495 0 3.877-.612 3.877-.612zm-61.62-17.528c-3.04 0-5.37.988-5.37.988l-.64 3.86s1.924-.79 4.83-.79c1.65 0 2.86.187 2.86 1.542 0 .824-.15 1.128-.15 1.128s-1.3-.11-1.904-.11c-3.833 0-7.86 1.653-7.86 6.638 0 3.928 2.642 4.83 4.28 4.83 3.126 0 4.474-2.05 4.546-2.058l-.146 1.712h3.902l1.74-12.337c0-5.234-4.517-5.403-6.086-5.403zm.95 10.046c.085.753-.467 4.286-3.135 4.286-1.377 0-1.735-1.063-1.735-1.692 0-1.226.66-2.698 3.907-2.698.75 0 .83.083.96.104 0 0-.13-.02 0 0zm9.285 7.95c1 0 6.706.256 6.706-5.697 0-5.56-5.283-4.46-5.283-6.7 0-1.11.86-1.46 2.435-1.46.625 0 3.028.2 3.028.2l.56-3.95s-1.556-.35-4.09-.35c-3.278 0-6.606 1.323-6.606 5.85 0 5.13 5.55 4.614 5.55 6.774 0 1.44-1.55 1.56-2.746 1.56-2.06 0-3.93-.717-3.93-.683l-.59 3.916c.11.035 1.258.55 4.97.55 0 0-3.72 0 0 0zm88.097-21.545l-.956 5.996s-1.668-2.33-4.28-2.33c-4.06 0-7.445 4.95-7.445 10.63 0 3.67 1.805 7.263 5.496 7.263 2.65 0 4.12-1.87 4.12-1.87l-.2 1.597h4.31l3.387-21.303-4.443.007zm-2.058 11.69c0 2.367-1.16 5.528-3.562 5.528-1.595 0-2.342-1.35-2.342-3.47 0-3.47 1.543-5.762 3.49-5.762 1.596 0 2.414 1.107 2.414 3.715 0 0 0-2.61 0 0zm-120.27 9.625l2.697-16.084.396 16.084h3.05l5.69-16.084-2.524 16.084h4.537l3.495-21.332h-7.01l-4.37 13.088-.227-13.088h-6.466L14.4 61.448h4.274zm68.284.03c1.292-7.416 1.53-13.437 4.61-12.335.538-2.87 1.058-3.98 1.646-5.195 0 0-.275-.06-.854-.06-1.985 0-3.456 2.742-3.456 2.742l.396-2.517h-4.127L82.41 61.477h4.55zm27.56-17.796c-3.04 0-5.37.988-5.37.988l-.643 3.86s1.923-.79 4.83-.79c1.65 0 2.856.187 2.856 1.542 0 .824-.147 1.128-.147 1.128s-1.3-.11-1.905-.11c-3.83 0-7.85 1.653-7.85 6.638 0 3.928 2.64 4.83 4.28 4.83 3.127 0 4.475-2.05 4.547-2.058l-.144 1.712h3.9l1.74-12.337c0-5.234-4.514-5.403-6.083-5.403zm.95 10.046c.084.753-.468 4.286-3.138 4.286-1.376 0-1.733-1.063-1.733-1.692 0-1.226.65-2.698 3.9-2.698.75 0 .832.083.96.104 0 0-.13-.02 0 0zm8.702 7.75c1.29-7.416 1.53-13.437 4.607-12.335.54-2.87 1.06-3.98 1.64-5.195 0 0-.278-.06-.856-.06-1.985 0-3.456 2.742-3.456 2.742l.395-2.517h-4.126l-2.765 17.364h4.55zm0 0" fill="#fff"/></g></svg>
